<!-- Generated by IcoMoon.io -->
<svg version="1.1" xmlns="http://www.w3.org/2000/svg" width="104" height="32" viewBox="0 0 104 32">
<title>acorn_logo_master</title>
<path fill="#f19103" d="M61.191 16.875v-6.576c-0.060-0.038-7.417-6.49-7.417-6.49s-7.357 6.452-7.417 6.49v6.576c0 1.757 0.954 3.356 2.206 4.608 1.708 1.708 4.039 2.809 5.211 2.809 1.165 0 3.492-1.101 5.211-2.809 1.252-1.267 2.206-2.851 2.206-4.608z"></path>
<path fill="#fff" d="M57.020 19.152c0 0.321-0.26 0.581-0.581 0.581h-5.313c-0.309 0-0.569-0.249-0.581-0.558v-9.024c0.011-0.309 0.272-0.558 0.581-0.558h5.313c0.321 0 0.581 0.26 0.581 0.581v8.979z"></path>
<path fill="#026734" d="M9.695 3.877h1.399l9.133 19.748h-1.599l-2.493-5.49h-11.569l-2.493 5.49h-1.512l9.133-19.748zM15.521 16.818l-5.155-11.347-5.181 11.347h10.336z"></path>
<path fill="#026734" d="M22.384 13.877v-0.057c0-5.547 4.144-10.14 9.804-10.14 3.499 0 5.604 1.29 7.617 3.137l-1.037 1.063c-1.708-1.652-3.669-2.885-6.61-2.885-4.706 0-8.262 3.839-8.262 8.767v0.057c0 4.959 3.613 8.824 8.292 8.824 2.828 0 4.763-1.094 6.75-3.054l0.98 0.954c-2.074 2.044-4.314 3.416-7.787 3.416-5.604 0-9.748-4.453-9.748-10.083z"></path>
<path fill="#026734" d="M67.175 4.016h8.236c2.41 0 4.34 0.758 5.517 1.934 0.924 0.924 1.486 2.24 1.486 3.643v0.057c0 3.277-2.436 5.155-5.743 5.604l6.471 8.375h-1.848l-6.248-8.123h-6.414v8.123h-1.456v-19.613zM75.245 14.186c3.277 0 5.713-1.652 5.713-4.484v-0.057c0-2.632-2.074-4.288-5.63-4.288h-6.697v8.824h6.614z"></path>
<path fill="#026734" d="M87.429 4.016h1.373l13.53 17.060v-17.060h1.399v19.609h-1.090l-13.813-17.422v17.422h-1.399z"></path>
<path fill="#f19103" d="M0.226 27h0.671l1.486 2.538 1.482-2.538h0.656l0.226 4.876h-0.686l-0.162-3.741-1.373 2.3h-0.351l-1.35-2.274-0.17 3.714h-0.656z"></path>
<path fill="#f19103" d="M9.578 31.996c-0.351 0-0.679-0.068-0.98-0.2-0.302-0.136-0.566-0.317-0.788-0.547s-0.4-0.502-0.524-0.815-0.189-0.645-0.189-1.003c0-0.354 0.064-0.686 0.189-0.996 0.128-0.309 0.302-0.581 0.52-0.811 0.222-0.23 0.486-0.415 0.788-0.547 0.305-0.132 0.63-0.2 0.984-0.2 0.351 0 0.679 0.068 0.98 0.2 0.305 0.136 0.569 0.317 0.792 0.547s0.4 0.502 0.528 0.811c0.128 0.309 0.189 0.641 0.189 0.996s-0.064 0.69-0.189 1.003-0.302 0.584-0.528 0.815c-0.222 0.23-0.486 0.415-0.792 0.547-0.305 0.136-0.63 0.2-0.98 0.2zM9.578 31.34c0.268 0 0.509-0.053 0.728-0.155s0.403-0.241 0.554-0.415c0.155-0.177 0.271-0.377 0.354-0.611 0.083-0.23 0.124-0.475 0.124-0.735 0-0.264-0.041-0.509-0.124-0.743-0.083-0.23-0.2-0.434-0.354-0.611-0.155-0.173-0.339-0.313-0.554-0.415-0.215-0.098-0.46-0.151-0.728-0.151s-0.509 0.049-0.724 0.151c-0.215 0.102-0.4 0.238-0.551 0.415-0.155 0.173-0.271 0.377-0.354 0.611-0.083 0.23-0.124 0.479-0.124 0.743 0 0.256 0.041 0.502 0.124 0.735 0.083 0.23 0.2 0.434 0.354 0.611 0.155 0.173 0.336 0.313 0.551 0.415 0.215 0.106 0.456 0.155 0.724 0.155z"></path>
<path fill="#f19103" d="M14.465 27.004h1.557c0.313 0 0.573 0.041 0.788 0.128s0.388 0.196 0.524 0.328c0.136 0.136 0.23 0.287 0.294 0.456 0.060 0.17 0.090 0.343 0.090 0.52 0 0.313-0.072 0.588-0.219 0.826s-0.373 0.415-0.679 0.535l1.139 2.082h-0.788l-1.045-1.995h-0.98v1.995h-0.679v-4.876zM16.079 29.289c0.305 0 0.535-0.075 0.69-0.226s0.23-0.354 0.23-0.607c0-0.268-0.083-0.475-0.249-0.626-0.166-0.147-0.392-0.222-0.686-0.222h-0.92v1.682h0.935z"></path>
<path fill="#f19103" d="M21.475 27.614h-1.746v-0.615h4.186v0.615h-1.738v4.261h-0.701z"></path>
<path fill="#f19103" d="M28.108 29.398h1.708v1.942c-0.094 0.083-0.2 0.162-0.317 0.241-0.121 0.079-0.256 0.147-0.415 0.207s-0.336 0.109-0.528 0.147c-0.196 0.038-0.415 0.057-0.656 0.057-0.381 0-0.724-0.064-1.026-0.192-0.305-0.128-0.566-0.305-0.781-0.532-0.219-0.226-0.381-0.494-0.498-0.803-0.113-0.309-0.173-0.645-0.173-1.011 0-0.354 0.060-0.69 0.181-0.999 0.121-0.313 0.287-0.584 0.502-0.815s0.471-0.415 0.769-0.547c0.298-0.132 0.634-0.2 0.996-0.2 0.256 0 0.49 0.030 0.694 0.090s0.385 0.14 0.535 0.234c0.155 0.094 0.283 0.2 0.392 0.309 0.106 0.113 0.196 0.219 0.271 0.321l-0.498 0.422c-0.057-0.083-0.128-0.17-0.211-0.26s-0.181-0.173-0.29-0.245c-0.113-0.072-0.241-0.132-0.385-0.181s-0.309-0.072-0.494-0.072c-0.268 0-0.509 0.049-0.724 0.155-0.215 0.102-0.396 0.241-0.543 0.415-0.147 0.177-0.264 0.381-0.343 0.618s-0.121 0.486-0.121 0.747c0 0.283 0.045 0.539 0.132 0.773s0.211 0.434 0.37 0.603c0.158 0.17 0.343 0.298 0.558 0.392s0.453 0.143 0.709 0.143c0.283 0 0.524-0.030 0.72-0.094s0.366-0.151 0.509-0.264v-0.992h-1.037v-0.611z"></path>
<path fill="#f19103" d="M33.806 27.004h0.716l1.908 4.872h-0.781l-0.505-1.358h-2.002l-0.505 1.358h-0.735l1.904-4.872zM34.934 29.922l-0.788-2.142-0.796 2.142h1.584z"></path>
<path fill="#f19103" d="M40.865 29.398h1.708v1.942c-0.094 0.083-0.2 0.162-0.317 0.241-0.121 0.079-0.256 0.147-0.415 0.207s-0.336 0.109-0.528 0.147c-0.196 0.038-0.415 0.057-0.656 0.057-0.381 0-0.724-0.064-1.026-0.192-0.305-0.128-0.566-0.305-0.781-0.532-0.219-0.226-0.381-0.494-0.498-0.803-0.113-0.309-0.173-0.645-0.173-1.011 0-0.354 0.060-0.69 0.181-0.999 0.121-0.313 0.287-0.584 0.502-0.815s0.471-0.415 0.769-0.547c0.298-0.132 0.633-0.2 0.996-0.2 0.256 0 0.49 0.030 0.694 0.090s0.385 0.14 0.535 0.234c0.155 0.094 0.283 0.2 0.392 0.309 0.106 0.113 0.196 0.219 0.272 0.321l-0.498 0.422c-0.057-0.083-0.128-0.17-0.211-0.26s-0.181-0.173-0.29-0.245c-0.113-0.072-0.241-0.132-0.385-0.181s-0.309-0.072-0.494-0.072c-0.268 0-0.509 0.049-0.724 0.155-0.215 0.102-0.396 0.241-0.543 0.415-0.147 0.177-0.264 0.381-0.343 0.618s-0.121 0.486-0.121 0.747c0 0.283 0.045 0.539 0.132 0.773s0.211 0.434 0.37 0.603c0.158 0.17 0.343 0.298 0.558 0.392s0.453 0.143 0.709 0.143c0.283 0 0.524-0.030 0.72-0.094s0.366-0.151 0.509-0.264v-0.992h-1.037v-0.611z"></path>
<path fill="#f19103" d="M45.123 27h3.066v0.622h-2.364v1.418h1.78v0.626h-1.78v1.58h2.542v0.63h-3.243z"></path>
<path fill="#f19103" d="M53.743 30.692c0.068 0.079 0.143 0.158 0.23 0.238s0.181 0.151 0.29 0.215c0.106 0.064 0.226 0.113 0.358 0.155 0.132 0.038 0.275 0.060 0.43 0.060 0.321 0 0.573-0.072 0.754-0.219s0.272-0.343 0.272-0.592c0-0.268-0.102-0.468-0.305-0.603s-0.498-0.241-0.882-0.324c-0.211-0.045-0.4-0.106-0.569-0.181s-0.317-0.177-0.441-0.29c-0.124-0.117-0.219-0.253-0.29-0.407-0.068-0.155-0.102-0.328-0.102-0.52 0-0.181 0.034-0.351 0.102-0.513s0.17-0.302 0.305-0.422 0.305-0.219 0.513-0.29c0.204-0.072 0.441-0.109 0.709-0.109 0.238 0 0.445 0.026 0.618 0.075 0.173 0.053 0.321 0.113 0.441 0.185s0.219 0.147 0.29 0.226c0.072 0.079 0.128 0.14 0.17 0.189l-0.468 0.43c-0.030-0.034-0.072-0.079-0.132-0.136-0.057-0.057-0.132-0.109-0.222-0.166-0.090-0.053-0.196-0.098-0.313-0.136-0.121-0.038-0.256-0.057-0.415-0.057-0.155 0-0.29 0.023-0.404 0.060-0.113 0.041-0.204 0.094-0.279 0.162-0.072 0.064-0.128 0.14-0.162 0.222s-0.053 0.166-0.053 0.249c0 0.121 0.026 0.226 0.075 0.309 0.053 0.087 0.124 0.162 0.222 0.226s0.219 0.121 0.362 0.17c0.143 0.045 0.309 0.090 0.494 0.136 0.181 0.045 0.358 0.102 0.528 0.173 0.173 0.072 0.328 0.166 0.464 0.283 0.136 0.121 0.245 0.268 0.324 0.437 0.079 0.173 0.121 0.385 0.121 0.63 0 0.211-0.045 0.404-0.132 0.577s-0.207 0.328-0.362 0.456c-0.155 0.128-0.336 0.23-0.543 0.298-0.211 0.072-0.437 0.106-0.679 0.106-0.23 0-0.437-0.026-0.626-0.079s-0.358-0.121-0.513-0.204c-0.155-0.083-0.287-0.173-0.404-0.275-0.113-0.098-0.207-0.2-0.283-0.298l0.505-0.445z"></path>
<path fill="#f19103" d="M61.406 31.996c-0.351 0-0.679-0.068-0.98-0.2-0.302-0.136-0.566-0.317-0.788-0.547s-0.4-0.502-0.524-0.815-0.189-0.645-0.189-1.003c0-0.354 0.064-0.686 0.189-0.996 0.128-0.309 0.302-0.581 0.52-0.811 0.222-0.23 0.486-0.415 0.788-0.547 0.305-0.132 0.63-0.2 0.984-0.2 0.351 0 0.679 0.068 0.98 0.2 0.305 0.136 0.569 0.317 0.792 0.547s0.4 0.502 0.528 0.811c0.128 0.309 0.189 0.641 0.189 0.996s-0.064 0.69-0.189 1.003c-0.128 0.313-0.302 0.584-0.528 0.815-0.222 0.23-0.486 0.415-0.792 0.547-0.302 0.136-0.63 0.2-0.98 0.2zM61.406 31.34c0.268 0 0.509-0.053 0.728-0.155s0.404-0.241 0.554-0.415c0.155-0.177 0.272-0.377 0.354-0.611 0.083-0.23 0.124-0.475 0.124-0.735 0-0.264-0.041-0.509-0.124-0.743-0.083-0.23-0.2-0.434-0.354-0.611-0.155-0.173-0.339-0.313-0.554-0.415-0.215-0.098-0.46-0.151-0.728-0.151s-0.509 0.049-0.724 0.151c-0.215 0.102-0.4 0.238-0.551 0.415-0.155 0.173-0.272 0.377-0.354 0.611-0.083 0.23-0.124 0.479-0.124 0.743 0 0.256 0.041 0.502 0.124 0.735 0.083 0.23 0.2 0.434 0.354 0.611 0.155 0.173 0.336 0.313 0.551 0.415 0.215 0.106 0.456 0.155 0.724 0.155z"></path>
<path fill="#f19103" d="M66.293 27h0.701v4.254h2.534v0.622h-3.235z"></path>
<path fill="#f19103" d="M71.451 27h0.701v2.851c0 0.219 0.019 0.419 0.057 0.603s0.106 0.339 0.2 0.471c0.094 0.132 0.222 0.234 0.381 0.302 0.158 0.072 0.358 0.106 0.603 0.106 0.238 0 0.437-0.034 0.596-0.106s0.287-0.17 0.381-0.302c0.094-0.132 0.162-0.287 0.2-0.471 0.038-0.181 0.057-0.385 0.057-0.603v-2.851h0.701v3.017c0 0.279-0.038 0.539-0.117 0.777-0.079 0.241-0.196 0.453-0.354 0.63s-0.358 0.317-0.603 0.422c-0.245 0.102-0.532 0.155-0.864 0.155s-0.618-0.053-0.864-0.155c-0.245-0.102-0.445-0.241-0.607-0.422-0.162-0.177-0.279-0.388-0.358-0.63s-0.117-0.502-0.117-0.777v-3.017z"></path>
<path fill="#f19103" d="M79.25 27.614h-1.746v-0.615h4.186v0.615h-1.738v4.261h-0.701z"></path>
<path fill="#f19103" d="M83.903 27h0.701v4.872h-0.701v-4.872z"></path>
<path fill="#f19103" d="M89.484 31.996c-0.351 0-0.679-0.068-0.98-0.2-0.302-0.136-0.566-0.317-0.788-0.547s-0.4-0.502-0.524-0.815-0.189-0.645-0.189-1.003c0-0.354 0.064-0.686 0.189-0.996 0.128-0.309 0.302-0.581 0.52-0.811 0.222-0.23 0.486-0.415 0.788-0.547 0.305-0.132 0.63-0.2 0.984-0.2 0.351 0 0.679 0.068 0.98 0.2 0.305 0.136 0.569 0.317 0.792 0.547s0.4 0.502 0.528 0.811c0.128 0.309 0.189 0.641 0.189 0.996s-0.064 0.69-0.189 1.003-0.302 0.584-0.528 0.815c-0.222 0.23-0.486 0.415-0.792 0.547-0.302 0.136-0.63 0.2-0.98 0.2zM89.484 31.34c0.268 0 0.509-0.053 0.728-0.155s0.403-0.241 0.554-0.415c0.155-0.177 0.272-0.377 0.354-0.611 0.083-0.23 0.124-0.475 0.124-0.735 0-0.264-0.041-0.509-0.124-0.743-0.083-0.23-0.2-0.434-0.354-0.611-0.155-0.173-0.339-0.313-0.554-0.415-0.215-0.098-0.46-0.151-0.728-0.151s-0.509 0.049-0.724 0.151c-0.215 0.102-0.4 0.238-0.551 0.415-0.155 0.173-0.272 0.377-0.354 0.611-0.083 0.23-0.124 0.479-0.124 0.743 0 0.256 0.041 0.502 0.124 0.735 0.083 0.23 0.2 0.434 0.354 0.611 0.155 0.173 0.336 0.313 0.551 0.415 0.215 0.106 0.456 0.155 0.724 0.155z"></path>
<path fill="#f19103" d="M94.371 27h0.709l2.659 3.809v-3.809h0.686v4.876h-0.698l-2.67-3.816v3.816h-0.686z"></path>
<path fill="#f19103" d="M101.23 30.692c0.068 0.079 0.143 0.158 0.23 0.238s0.181 0.151 0.29 0.215c0.106 0.064 0.226 0.113 0.358 0.155 0.132 0.038 0.275 0.060 0.43 0.060 0.321 0 0.573-0.072 0.754-0.219s0.272-0.343 0.272-0.592c0-0.268-0.102-0.468-0.305-0.603s-0.498-0.241-0.882-0.324c-0.211-0.045-0.4-0.106-0.569-0.181-0.17-0.079-0.317-0.177-0.441-0.29-0.124-0.117-0.222-0.253-0.29-0.407s-0.102-0.328-0.102-0.52c0-0.181 0.034-0.351 0.102-0.513s0.17-0.302 0.305-0.422 0.305-0.219 0.513-0.29c0.204-0.072 0.441-0.109 0.709-0.109 0.238 0 0.445 0.026 0.618 0.075 0.173 0.053 0.321 0.113 0.441 0.185s0.219 0.147 0.294 0.226c0.072 0.079 0.128 0.14 0.17 0.189l-0.468 0.43c-0.030-0.034-0.072-0.079-0.132-0.136s-0.132-0.109-0.222-0.166c-0.091-0.053-0.196-0.098-0.313-0.136-0.121-0.038-0.256-0.057-0.411-0.057s-0.29 0.023-0.403 0.060c-0.113 0.041-0.204 0.094-0.279 0.162-0.072 0.064-0.128 0.14-0.162 0.222s-0.053 0.166-0.053 0.249c0 0.121 0.026 0.226 0.075 0.309 0.053 0.087 0.124 0.162 0.222 0.226s0.219 0.121 0.362 0.17c0.143 0.045 0.309 0.090 0.494 0.136 0.181 0.045 0.358 0.102 0.532 0.173s0.328 0.166 0.464 0.283c0.136 0.121 0.245 0.268 0.324 0.437 0.079 0.173 0.121 0.385 0.121 0.63 0 0.211-0.045 0.404-0.132 0.577s-0.207 0.328-0.362 0.456-0.336 0.23-0.543 0.298c-0.211 0.072-0.437 0.106-0.679 0.106-0.23 0-0.437-0.026-0.626-0.079s-0.358-0.121-0.513-0.204c-0.155-0.083-0.287-0.173-0.403-0.275-0.113-0.098-0.207-0.2-0.283-0.298l0.494-0.445z"></path>
<path fill="#026734" d="M54.245 11.475c0.113 0.060 0.185 0.185 0.185 0.309v5.758c0 0.147-0.087 0.271-0.211 0.321l-2.229 1.188h4.333v-8.764h-4.333l2.255 1.188z"></path>
<path fill="#026734" d="M52.97 13.741v1.784l0.645-0.136v-1.474z"></path>
<path fill="#056734" d="M59.2 4.344c0.211-0.803 0.841-1.746 1.263-2.168 0.222-0.222 0.287-0.547 0.038-0.792-0.087-0.098-0.211-0.147-0.336-0.147l-1.919-0.249c-0.272-0.026-0.52 0.011-0.743 0.124-0.321 0.162-0.558 0.456-0.716 0.818-0.038 0.060-0.064 0.136-0.087 0.211l-2.044-1.795c-0.509-0.456-1.263-0.456-1.772 0l-8.481 7.478c-0.222 0.2-0.234 0.532-0.038 0.743l0.705 0.792c0.2 0.222 0.532 0.234 0.743 0.038l7.591-6.697c0.196-0.173 0.494-0.173 0.705 0l7.591 6.697c0.222 0.2 0.558 0.173 0.743-0.038l0.705-0.792c0.2-0.222 0.173-0.558-0.038-0.743l-3.91-3.481z"></path>
</svg>
