<!-- Generated by IcoMoon.io -->
<svg version="1.1" xmlns="http://www.w3.org/2000/svg" width="104" height="32" viewBox="0 0 104 32">
<path fill="#fff" d="M61.198 16.879v-6.579c-0.063-0.037-7.419-6.49-7.419-6.49s-7.356 6.454-7.419 6.49v6.574c0 1.758 0.955 3.358 2.204 4.607 1.71 1.71 4.040 2.812 5.215 2.812 1.165 0 3.494-1.102 5.215-2.812 1.254-1.259 2.204-2.844 2.204-4.601z"></path>
<path fill="#fff" d="M57.027 19.156c0 0.32-0.262 0.582-0.582 0.582h-5.315c-0.31 0-0.572-0.247-0.582-0.556v-9.030c0.011-0.31 0.273-0.556 0.582-0.556h5.315c0.32 0 0.582 0.262 0.582 0.582v8.977z"></path>
<path fill="#026734" d="M9.696 3.877h1.401l9.135 19.749h-1.595l-2.492-5.488h-11.574l-2.492 5.488h-1.516l9.135-19.749zM15.525 16.821l-5.158-11.344-5.184 11.344h10.341z"></path>
<path fill="#026734" d="M22.388 13.878v-0.058c0-5.546 4.145-10.142 9.806-10.142 3.5 0 5.604 1.291 7.618 3.138l-1.039 1.065c-1.71-1.653-3.673-2.886-6.611-2.886-4.706 0-8.264 3.841-8.264 8.767v0.058c0 4.958 3.615 8.825 8.295 8.825 2.828 0 4.764-1.091 6.753-3.054l0.981 0.955c-2.072 2.046-4.313 3.421-7.786 3.421-5.609-0.005-9.754-4.46-9.754-10.090z"></path>
<path fill="#026734" d="M67.185 4.019h8.237c2.408 0 4.344 0.756 5.52 1.931 0.923 0.923 1.485 2.24 1.485 3.641v0.058c0 3.279-2.434 5.158-5.745 5.604l6.475 8.379h-1.847l-6.249-8.127h-6.417v8.127h-1.459v-19.612zM75.254 14.187c3.279 0 5.714-1.653 5.714-4.481v-0.058c0-2.634-2.072-4.287-5.63-4.287h-6.695v8.825h6.611z"></path>
<path fill="#026734" d="M87.437 4.019h1.375l13.531 17.057v-17.057h1.401v19.607h-1.091l-13.815-17.424v17.424h-1.401z"></path>
<path fill="#fff" d="M0.226 27.005h0.672l1.485 2.534 1.485-2.534h0.656l0.226 4.874h-0.687l-0.157-3.741-1.375 2.303h-0.352l-1.354-2.277-0.168 3.715h-0.656z"></path>
<path fill="#fff" d="M9.581 32c-0.352 0-0.677-0.068-0.981-0.199-0.299-0.136-0.567-0.315-0.787-0.546-0.226-0.231-0.399-0.504-0.525-0.813s-0.189-0.645-0.189-1.002c0-0.357 0.063-0.687 0.189-0.997s0.299-0.582 0.519-0.813c0.22-0.231 0.483-0.415 0.787-0.546s0.63-0.199 0.981-0.199c0.352 0 0.677 0.068 0.981 0.199 0.304 0.136 0.567 0.315 0.792 0.546s0.399 0.504 0.525 0.813c0.126 0.31 0.189 0.64 0.189 0.997s-0.063 0.687-0.189 1.002c-0.126 0.31-0.304 0.582-0.525 0.813-0.226 0.231-0.488 0.415-0.792 0.546-0.299 0.136-0.63 0.199-0.976 0.199zM9.581 31.344c0.268 0 0.509-0.052 0.724-0.152s0.404-0.241 0.556-0.415c0.152-0.173 0.273-0.378 0.357-0.609s0.126-0.477 0.126-0.735c0-0.262-0.042-0.509-0.126-0.74s-0.199-0.435-0.357-0.609c-0.152-0.173-0.341-0.315-0.556-0.415s-0.456-0.152-0.724-0.152c-0.268 0-0.509 0.052-0.724 0.152s-0.399 0.236-0.551 0.415c-0.152 0.173-0.273 0.378-0.352 0.609-0.084 0.231-0.126 0.477-0.126 0.74 0 0.257 0.042 0.504 0.126 0.735s0.199 0.435 0.352 0.609c0.152 0.173 0.336 0.315 0.551 0.415s0.451 0.152 0.724 0.152z"></path>
<path fill="#fff" d="M14.465 27.005h1.558c0.31 0 0.577 0.042 0.787 0.126 0.215 0.084 0.388 0.194 0.519 0.331 0.136 0.136 0.231 0.283 0.294 0.456s0.089 0.341 0.089 0.519c0 0.31-0.073 0.588-0.22 0.824-0.147 0.241-0.373 0.415-0.682 0.535l1.139 2.083h-0.787l-1.044-1.994h-0.981v1.994h-0.682v-4.874zM16.081 29.293c0.304 0 0.535-0.073 0.693-0.226 0.152-0.152 0.231-0.352 0.231-0.603 0-0.268-0.084-0.477-0.247-0.624-0.168-0.147-0.393-0.22-0.687-0.22h-0.918v1.679h0.929z"></path>
<path fill="#fff" d="M21.48 27.619h-1.747v-0.614h4.187v0.614h-1.737v4.26h-0.703z"></path>
<path fill="#fff" d="M28.112 29.403h1.71v1.941c-0.094 0.084-0.199 0.163-0.32 0.241s-0.257 0.147-0.415 0.21c-0.157 0.063-0.336 0.11-0.53 0.147s-0.415 0.052-0.656 0.052c-0.378 0-0.724-0.063-1.028-0.194s-0.567-0.304-0.782-0.535c-0.215-0.226-0.383-0.493-0.498-0.803s-0.173-0.645-0.173-1.013c0-0.357 0.058-0.687 0.178-1.002 0.121-0.31 0.289-0.582 0.498-0.813 0.215-0.231 0.472-0.415 0.771-0.546s0.63-0.199 0.997-0.199c0.257 0 0.488 0.031 0.693 0.089 0.205 0.063 0.383 0.136 0.535 0.236 0.152 0.094 0.283 0.199 0.388 0.31s0.199 0.22 0.268 0.32l-0.498 0.425c-0.058-0.084-0.131-0.168-0.21-0.262-0.084-0.089-0.178-0.173-0.294-0.247-0.11-0.073-0.241-0.136-0.383-0.184s-0.31-0.073-0.493-0.073c-0.268 0-0.509 0.052-0.724 0.152-0.215 0.105-0.393 0.241-0.546 0.415-0.147 0.173-0.262 0.383-0.341 0.619s-0.121 0.488-0.121 0.75c0 0.283 0.042 0.54 0.131 0.771 0.089 0.236 0.21 0.435 0.367 0.603s0.346 0.299 0.561 0.393c0.215 0.094 0.451 0.142 0.708 0.142 0.283 0 0.525-0.031 0.719-0.094 0.199-0.063 0.367-0.152 0.509-0.262v-0.992h-1.039v-0.598z"></path>
<path fill="#fff" d="M33.81 27.005h0.714l1.91 4.874h-0.782l-0.504-1.359h-2.004l-0.504 1.359h-0.74l1.91-4.874zM34.938 29.928l-0.787-2.141-0.797 2.141h1.585z"></path>
<path fill="#fff" d="M40.867 29.403h1.71v1.941c-0.094 0.084-0.199 0.163-0.32 0.241s-0.257 0.147-0.414 0.21c-0.157 0.063-0.336 0.11-0.53 0.147s-0.414 0.052-0.656 0.052c-0.378 0-0.724-0.063-1.028-0.194s-0.567-0.304-0.782-0.535c-0.215-0.226-0.383-0.493-0.498-0.803s-0.173-0.645-0.173-1.013c0-0.357 0.058-0.687 0.178-1.002 0.121-0.31 0.289-0.582 0.498-0.813 0.215-0.231 0.472-0.415 0.771-0.546s0.63-0.199 0.997-0.199c0.257 0 0.488 0.031 0.693 0.089 0.205 0.063 0.383 0.136 0.535 0.236 0.152 0.094 0.283 0.199 0.388 0.31s0.199 0.22 0.268 0.32l-0.498 0.425c-0.058-0.084-0.131-0.168-0.21-0.262-0.084-0.089-0.178-0.173-0.294-0.247-0.11-0.073-0.241-0.136-0.383-0.184s-0.31-0.073-0.493-0.073c-0.268 0-0.509 0.052-0.724 0.152-0.215 0.105-0.394 0.241-0.546 0.415-0.147 0.173-0.262 0.383-0.341 0.619s-0.121 0.488-0.121 0.75c0 0.283 0.042 0.54 0.131 0.771 0.089 0.236 0.21 0.435 0.367 0.603s0.346 0.299 0.561 0.393c0.215 0.094 0.451 0.142 0.708 0.142 0.283 0 0.525-0.031 0.719-0.094 0.199-0.063 0.367-0.152 0.509-0.262v-0.992h-1.039v-0.598z"></path>
<path fill="#fff" d="M45.127 27.005h3.069v0.619h-2.366v1.422h1.784v0.624h-1.784v1.579h2.539v0.63h-3.242z"></path>
<path fill="#fff" d="M53.748 30.694c0.068 0.079 0.147 0.157 0.231 0.236s0.184 0.152 0.289 0.215c0.11 0.063 0.226 0.115 0.357 0.152s0.273 0.058 0.43 0.058c0.32 0 0.572-0.073 0.75-0.22s0.273-0.341 0.273-0.593c0-0.268-0.105-0.467-0.304-0.603-0.205-0.136-0.498-0.241-0.881-0.325-0.21-0.042-0.399-0.105-0.572-0.184s-0.32-0.173-0.441-0.294c-0.126-0.115-0.22-0.252-0.289-0.404s-0.1-0.325-0.1-0.519c0-0.178 0.037-0.352 0.1-0.514 0.068-0.163 0.168-0.304 0.304-0.425s0.304-0.22 0.514-0.294c0.205-0.073 0.441-0.11 0.708-0.11 0.241 0 0.446 0.026 0.619 0.079s0.32 0.115 0.441 0.189c0.121 0.073 0.22 0.147 0.294 0.226s0.131 0.142 0.168 0.189l-0.467 0.43c-0.031-0.037-0.073-0.079-0.131-0.136s-0.131-0.11-0.22-0.163c-0.089-0.052-0.194-0.1-0.315-0.136s-0.257-0.052-0.414-0.052-0.289 0.021-0.404 0.063c-0.11 0.042-0.205 0.094-0.278 0.163s-0.126 0.142-0.163 0.226-0.052 0.168-0.052 0.247c0 0.121 0.026 0.226 0.079 0.31s0.126 0.163 0.22 0.226c0.1 0.068 0.22 0.121 0.362 0.168s0.31 0.094 0.493 0.136c0.178 0.042 0.357 0.1 0.53 0.173s0.325 0.168 0.462 0.283c0.136 0.121 0.247 0.268 0.325 0.441s0.121 0.383 0.121 0.63c0 0.21-0.042 0.404-0.131 0.577s-0.21 0.325-0.362 0.456c-0.152 0.131-0.336 0.231-0.546 0.299s-0.435 0.105-0.677 0.105c-0.231 0-0.435-0.026-0.624-0.079s-0.357-0.121-0.514-0.205c-0.152-0.084-0.289-0.173-0.404-0.273s-0.21-0.199-0.283-0.294l0.504-0.451z"></path>
<path fill="#fff" d="M61.413 32c-0.352 0-0.677-0.068-0.981-0.199-0.299-0.136-0.567-0.315-0.787-0.546-0.226-0.231-0.399-0.504-0.525-0.813s-0.189-0.645-0.189-1.002c0-0.357 0.063-0.687 0.189-0.997s0.299-0.582 0.519-0.813c0.22-0.231 0.483-0.415 0.787-0.546s0.63-0.199 0.981-0.199c0.352 0 0.677 0.068 0.981 0.199 0.304 0.136 0.567 0.315 0.792 0.546s0.399 0.504 0.525 0.813c0.126 0.31 0.189 0.64 0.189 0.997s-0.063 0.687-0.189 1.002c-0.126 0.31-0.304 0.582-0.525 0.813-0.226 0.231-0.488 0.415-0.792 0.546-0.299 0.136-0.624 0.199-0.976 0.199zM61.413 31.344c0.268 0 0.509-0.052 0.724-0.152s0.404-0.241 0.556-0.415c0.152-0.173 0.273-0.378 0.357-0.609s0.126-0.477 0.126-0.735c0-0.262-0.042-0.509-0.126-0.74s-0.199-0.435-0.357-0.609c-0.152-0.173-0.341-0.315-0.556-0.415s-0.456-0.152-0.724-0.152c-0.268 0-0.509 0.052-0.724 0.152s-0.399 0.236-0.551 0.415c-0.152 0.173-0.273 0.378-0.352 0.609-0.084 0.231-0.126 0.477-0.126 0.74 0 0.257 0.042 0.504 0.126 0.735s0.199 0.435 0.352 0.609c0.152 0.173 0.336 0.315 0.551 0.415s0.456 0.152 0.724 0.152z"></path>
<path fill="#fff" d="M66.303 27.005h0.698v4.25h2.534v0.624h-3.232z"></path>
<path fill="#fff" d="M71.461 27.005h0.703v2.849c0 0.22 0.021 0.42 0.058 0.603s0.105 0.341 0.199 0.472c0.094 0.131 0.22 0.231 0.378 0.304 0.157 0.068 0.357 0.105 0.603 0.105 0.241 0 0.435-0.037 0.598-0.105 0.157-0.068 0.283-0.173 0.378-0.304s0.163-0.289 0.199-0.472c0.037-0.184 0.058-0.383 0.058-0.603v-2.849h0.703v3.017c0 0.278-0.042 0.535-0.115 0.777-0.079 0.241-0.194 0.451-0.352 0.63s-0.357 0.32-0.603 0.42c-0.241 0.1-0.53 0.152-0.86 0.152s-0.619-0.052-0.86-0.152c-0.241-0.105-0.446-0.241-0.609-0.42s-0.278-0.388-0.357-0.63c-0.079-0.241-0.115-0.498-0.115-0.777v-3.017z"></path>
<path fill="#fff" d="M79.263 27.619h-1.747v-0.614h4.187v0.614h-1.742v4.26h-0.698z"></path>
<path fill="#fff" d="M83.917 27.005h0.703v4.874h-0.703v-4.874z"></path>
<path fill="#fff" d="M89.499 32c-0.352 0-0.677-0.068-0.981-0.199-0.304-0.136-0.567-0.315-0.787-0.546-0.226-0.231-0.399-0.504-0.525-0.813s-0.189-0.645-0.189-1.002c0-0.357 0.063-0.687 0.189-0.997s0.299-0.582 0.519-0.813c0.22-0.231 0.483-0.415 0.787-0.546s0.635-0.199 0.981-0.199c0.352 0 0.677 0.068 0.981 0.199 0.304 0.136 0.567 0.315 0.792 0.546s0.399 0.504 0.525 0.813c0.126 0.31 0.189 0.64 0.189 0.997s-0.063 0.687-0.189 1.002c-0.126 0.31-0.304 0.582-0.525 0.813-0.226 0.231-0.488 0.415-0.792 0.546-0.299 0.136-0.63 0.199-0.976 0.199zM89.499 31.344c0.268 0 0.509-0.052 0.724-0.152 0.215-0.105 0.404-0.241 0.556-0.415s0.273-0.378 0.352-0.609c0.084-0.231 0.126-0.477 0.126-0.735 0-0.262-0.042-0.509-0.126-0.74s-0.199-0.435-0.352-0.609c-0.152-0.173-0.341-0.315-0.556-0.415s-0.456-0.152-0.724-0.152c-0.268 0-0.509 0.052-0.724 0.152s-0.399 0.236-0.551 0.415c-0.152 0.173-0.273 0.378-0.352 0.609-0.084 0.231-0.126 0.477-0.126 0.74 0 0.257 0.042 0.504 0.126 0.735s0.199 0.435 0.352 0.609c0.152 0.173 0.336 0.315 0.551 0.415s0.456 0.152 0.724 0.152z"></path>
<path fill="#fff" d="M94.384 27.005h0.708l2.66 3.809v-3.809h0.687v4.874h-0.703l-2.665-3.814v3.814h-0.687z"></path>
<path fill="#fff" d="M101.247 30.694c0.068 0.079 0.147 0.157 0.231 0.236s0.184 0.152 0.289 0.215c0.105 0.063 0.226 0.115 0.357 0.152s0.273 0.058 0.43 0.058c0.32 0 0.572-0.073 0.75-0.22s0.273-0.341 0.273-0.593c0-0.268-0.105-0.467-0.304-0.603-0.205-0.136-0.498-0.241-0.881-0.325-0.21-0.042-0.399-0.105-0.572-0.184s-0.32-0.173-0.441-0.294c-0.126-0.115-0.22-0.252-0.289-0.404s-0.105-0.325-0.105-0.519c0-0.178 0.037-0.352 0.105-0.514s0.168-0.304 0.304-0.425 0.31-0.22 0.514-0.294c0.205-0.073 0.441-0.11 0.708-0.11 0.241 0 0.446 0.026 0.619 0.079s0.32 0.115 0.441 0.189c0.121 0.073 0.22 0.147 0.294 0.226s0.131 0.142 0.168 0.189l-0.467 0.43c-0.031-0.037-0.073-0.079-0.131-0.136s-0.131-0.11-0.22-0.163c-0.089-0.052-0.194-0.1-0.315-0.136s-0.257-0.052-0.415-0.052-0.289 0.021-0.404 0.063c-0.11 0.042-0.205 0.094-0.278 0.163s-0.126 0.142-0.163 0.226-0.052 0.168-0.052 0.247c0 0.121 0.026 0.226 0.079 0.31s0.126 0.163 0.22 0.226c0.1 0.068 0.22 0.121 0.362 0.168s0.31 0.094 0.493 0.136c0.178 0.042 0.357 0.1 0.53 0.173s0.325 0.168 0.462 0.283c0.136 0.121 0.247 0.268 0.325 0.441s0.121 0.383 0.121 0.63c0 0.21-0.042 0.404-0.131 0.577s-0.21 0.325-0.362 0.456c-0.152 0.131-0.336 0.231-0.546 0.299s-0.435 0.105-0.677 0.105c-0.231 0-0.435-0.026-0.624-0.079s-0.357-0.121-0.509-0.205c-0.152-0.084-0.289-0.173-0.404-0.273s-0.21-0.199-0.283-0.294l0.498-0.451z"></path>
<path fill="#f19103" d="M54.252 11.475c0.11 0.063 0.184 0.184 0.184 0.31v5.761c0 0.147-0.084 0.273-0.21 0.32l-2.23 1.186h4.334v-8.762h-4.334l2.256 1.186z"></path>
<path fill="#f19103" d="M52.977 13.741v1.784l0.645-0.136v-1.474z"></path>
<path fill="#026734" d="M59.204 4.344c0.21-0.803 0.839-1.747 1.264-2.167 0.22-0.226 0.283-0.546 0.037-0.792-0.089-0.1-0.21-0.147-0.336-0.147l-1.92-0.247c-0.273-0.026-0.519 0.010-0.745 0.126-0.32 0.163-0.556 0.456-0.719 0.819-0.037 0.063-0.063 0.136-0.084 0.21l-2.046-1.794c-0.509-0.456-1.264-0.456-1.773 0l-8.474 7.471c-0.22 0.199-0.236 0.53-0.037 0.745l0.708 0.792c0.199 0.22 0.53 0.236 0.745 0.037l7.587-6.7c0.199-0.173 0.498-0.173 0.708 0l7.592 6.7c0.226 0.199 0.556 0.173 0.745-0.037l0.708-0.792c0.199-0.22 0.173-0.556-0.037-0.745l-3.925-3.479z"></path>
</svg>
