<?xml version="1.0" standalone="no"?>
<!DOCTYPE svg PUBLIC "-//W3C//DTD SVG 20010904//EN"
 "http://www.w3.org/TR/2001/REC-SVG-20010904/DTD/svg10.dtd">
<svg version="1.0" xmlns="http://www.w3.org/2000/svg"
 width="900.000000pt" height="900.000000pt" viewBox="0 0 900.000000 900.000000"
 preserveAspectRatio="xMidYMid meet">
<metadata>
Created by potrace 1.14, written by Peter Selinger 2001-2017
</metadata>
<g transform="translate(0.000000,900.000000) scale(0.100000,-0.100000)"
fill="#000000" stroke="none">
<path d="M4377 8430 c-32 -10 -77 -30 -99 -45 -50 -33 -2818 -2474 -2846
-2510 -11 -14 -23 -43 -27 -64 -12 -75 6 -107 150 -269 75 -84 147 -159 161
-169 39 -25 114 -29 156 -7 20 11 596 513 1280 1118 685 604 1257 1105 1273
1114 37 19 114 18 151 -1 17 -9 587 -507 1268 -1109 680 -601 1256 -1103 1279
-1116 51 -28 123 -26 165 5 15 11 87 86 159 167 142 158 161 191 148 267 -4
22 -19 54 -33 71 -19 22 -1261 1133 -1290 1154 -8 5 45 142 98 249 71 146 172
300 276 420 57 65 81 102 90 134 13 52 4 102 -23 140 -44 58 -51 60 -409 107
-409 54 -477 55 -580 4 -92 -45 -161 -119 -221 -236 l-50 -95 -341 300 c-187
165 -358 311 -379 326 -91 62 -243 81 -356 45z"/>
<path d="M4205 6943 c-159 -141 -699 -613 -1198 -1051 l-908 -795 4 -1176 3
-1176 23 -100 c93 -415 302 -781 651 -1139 299 -307 614 -537 995 -726 308
-153 529 -221 720 -223 132 -1 225 17 409 80 466 158 1042 544 1389 928 310
344 500 687 589 1066 22 94 22 98 25 1284 l2 1190 -307 267 c-169 147 -707
618 -1197 1047 -489 429 -894 780 -900 780 -5 0 -140 -115 -300 -256z m1242
-1624 c35 -13 79 -54 101 -94 16 -28 17 -153 20 -1515 2 -1064 0 -1498 -8
-1530 -15 -58 -51 -105 -100 -130 -39 -20 -56 -20 -964 -18 l-924 3 -39 31
c-21 16 -48 50 -60 74 l-23 44 0 1493 c0 1326 2 1498 15 1531 19 43 48 77 90
103 29 18 70 19 947 19 623 0 926 -3 945 -11z"/>
<path d="M4309 4903 c298 -157 378 -203 392 -228 18 -29 19 -73 19 -995 0
-900 -1 -967 -18 -993 -13 -22 -105 -76 -372 -219 -195 -104 -366 -196 -380
-203 -21 -12 75 -14 683 -15 l707 0 0 1425 0 1425 -702 0 -703 0 374 -197z"/>
<path d="M4250 3690 c0 -246 2 -291 14 -287 8 3 53 13 100 23 l86 17 0 242 0
242 -87 23 c-49 13 -94 25 -100 28 -10 3 -13 -58 -13 -288z"/>
</g>
</svg>
